<?xml version="1.0" standalone="no"?>
<!DOCTYPE svg PUBLIC "-//W3C//DTD SVG 20010904//EN"
 "http://www.w3.org/TR/2001/REC-SVG-20010904/DTD/svg10.dtd">
<svg version="1.0" xmlns="http://www.w3.org/2000/svg"
 width="2500.000000pt" height="2500.000000pt" viewBox="0 0 2500.000000 2500.000000"
 preserveAspectRatio="xMidYMid meet">

<g transform="translate(0.000000,2500.000000) scale(0.100000,-0.100000)"
fill="#000000" stroke="none">
<path d="M12210 20423 c-244 -16 -443 -83 -635 -213 -127 -86 -264 -228 -349
-360 -16 -25 -37 -56 -46 -70 -9 -14 -39 -72 -67 -130 -101 -209 -185 -514
-214 -770 -16 -148 -17 -484 0 -625 90 -788 498 -1372 1356 -1945 167 -112
169 -113 146 -129 -103 -70 -595 -300 -816 -381 -27 -10 -86 -33 -130 -50 -44
-17 -186 -66 -315 -109 -224 -75 -312 -103 -542 -172 -375 -111 -750 -243
-968 -339 -646 -284 -1011 -687 -1241 -1370 -56 -168 -159 -570 -183 -715 -3
-16 -16 -91 -30 -165 -32 -173 -63 -371 -76 -485 -6 -49 -17 -130 -25 -180 -8
-49 -19 -144 -25 -210 -6 -66 -15 -150 -20 -187 -6 -37 -19 -176 -30 -310 -11
-134 -25 -280 -30 -326 -5 -45 -15 -197 -22 -336 -21 -446 6 -557 165 -664 23
-16 58 -34 77 -42 19 -7 40 -17 45 -21 6 -4 62 -20 125 -36 108 -26 127 -28
325 -28 200 1 216 2 340 32 142 34 340 102 535 183 323 133 450 172 564 171
44 0 83 -4 88 -9 5 -5 -5 -43 -23 -88 -95 -238 -181 -532 -230 -794 -10 -58
-24 -127 -29 -155 -31 -159 -46 -475 -31 -636 19 -197 71 -332 158 -409 54
-47 108 -64 184 -57 69 6 115 27 175 80 138 121 208 348 221 712 10 299 -47
770 -127 1045 -34 116 -85 214 -144 277 l-54 58 55 105 c170 326 414 592 768
836 547 377 725 539 887 809 171 285 314 734 374 1170 8 60 17 112 20 115 8 7
24 -22 24 -43 0 -10 12 -53 26 -95 160 -469 632 -796 1404 -972 156 -36 457
-84 655 -104 135 -14 166 -21 310 -72 88 -30 187 -64 220 -74 33 -10 121 -37
195 -60 216 -67 220 -68 320 -85 197 -35 272 -18 278 61 6 81 -113 204 -236
245 -98 33 -163 38 -362 28 -120 -6 -255 -6 -383 1 l-199 10 -152 60 c-83 33
-160 65 -171 70 -360 165 -547 274 -751 438 -108 87 -228 207 -291 293 -134
181 -260 574 -410 1279 -13 63 -31 149 -39 190 -8 41 -21 104 -29 140 -100
437 -125 515 -180 558 -27 22 -55 19 -79 -6 -51 -57 -97 -297 -121 -631 -8
-117 -20 -221 -25 -230 -6 -10 -9 -11 -10 -3 -1 40 -24 229 -46 372 -41 274
-102 448 -168 475 -37 16 -84 4 -109 -28 -45 -55 -103 -214 -137 -375 -11 -52
-22 -97 -24 -101 -14 -21 -115 -674 -131 -846 -13 -133 -70 -367 -132 -543
-46 -130 -162 -350 -242 -455 -255 -338 -595 -533 -1319 -756 -67 -21 -124
-36 -126 -32 -2 3 9 87 25 186 16 99 36 263 44 365 40 473 45 544 45 619 0 79
-1 81 -24 81 -14 0 -27 -3 -29 -7 -6 -9 -10 -67 -32 -403 -8 -129 -20 -266
-25 -305 -5 -38 -16 -131 -25 -205 -9 -74 -26 -186 -38 -248 l-22 -114 -191
-63 c-341 -113 -496 -210 -560 -350 -40 -86 -42 -131 -10 -201 31 -67 69 -99
159 -133 264 -97 499 117 622 571 29 103 46 138 71 138 16 0 341 108 524 173
499 179 812 406 1035 752 150 232 277 607 311 919 7 72 16 141 19 154 3 13 12
73 20 135 28 214 102 609 142 752 33 120 71 215 99 244 20 21 25 23 39 11 57
-47 106 -242 155 -615 5 -38 16 -164 25 -280 8 -115 17 -228 20 -250 13 -128
15 -280 6 -360 -7 -49 -18 -148 -26 -220 -70 -606 -249 -1138 -490 -1452 -132
-172 -285 -305 -634 -551 -240 -169 -250 -176 -401 -303 -228 -191 -378 -378
-525 -652 -54 -103 -58 -107 -83 -99 -15 4 -65 7 -112 6 -112 -1 -234 -37
-535 -159 -314 -127 -481 -181 -653 -211 -165 -28 -289 -31 -430 -9 -133 20
-204 40 -290 81 -99 48 -143 95 -173 186 -22 68 -24 87 -23 278 1 113 9 277
17 365 9 88 21 232 27 320 6 88 15 189 20 225 5 36 16 144 25 240 9 96 20 204
26 240 5 36 18 137 29 225 70 570 188 1128 315 1495 204 584 522 961 1027
1216 231 116 527 232 828 324 58 18 139 42 180 55 41 13 116 35 165 50 451
135 749 237 1090 373 115 46 402 180 568 265 164 84 180 90 200 77 115 -73
631 -341 842 -437 330 -150 636 -274 1047 -423 59 -22 129 -48 155 -59 27 -10
111 -45 188 -76 246 -100 457 -216 655 -364 111 -82 343 -320 442 -451 215
-288 410 -650 578 -1075 46 -115 89 -223 95 -240 14 -34 114 -348 140 -440 65
-227 117 -475 151 -716 23 -169 27 -227 27 -444 0 -224 -3 -266 -27 -408 -56
-333 -140 -541 -271 -673 -59 -59 -82 -74 -135 -92 -133 -45 -271 -22 -565 96
-64 25 -365 168 -465 220 -109 57 -583 299 -815 417 l-200 102 -60 85 c-99
140 -171 225 -325 379 -487 488 -1061 836 -1265 767 -57 -19 -82 -70 -65 -136
32 -126 220 -325 480 -508 189 -133 417 -259 857 -475 352 -174 328 -155 376
-279 82 -209 155 -477 251 -915 13 -60 45 -269 77 -505 16 -119 23 -617 10
-741 -21 -204 -83 -402 -162 -517 l-46 -67 -49 1 c-27 1 -130 16 -229 33 -99
18 -236 41 -305 52 -437 68 -488 75 -814 114 -362 43 -745 46 -916 5 -162 -38
-266 -101 -314 -190 -26 -48 -28 -59 -24 -130 4 -67 9 -85 38 -130 81 -126
283 -233 510 -270 177 -28 588 -21 825 15 140 21 326 54 335 60 4 3 43 12 87
20 43 8 110 24 148 36 39 11 108 32 155 46 106 31 245 79 285 98 17 7 66 30
110 50 43 20 98 52 121 70 45 37 61 40 127 25 23 -5 98 -18 167 -30 69 -11
172 -29 230 -39 214 -39 657 -118 845 -151 61 -11 144 -26 185 -34 41 -8 136
-26 210 -40 74 -14 185 -35 245 -47 61 -12 151 -29 200 -39 139 -27 328 -67
455 -95 277 -62 341 -77 435 -100 55 -13 147 -35 205 -49 58 -13 116 -29 130
-34 14 -6 75 -25 135 -42 367 -106 712 -250 879 -368 157 -111 258 -238 292
-367 16 -60 18 -209 3 -291 -22 -122 -102 -322 -196 -489 -312 -551 -786 -950
-1328 -1119 -225 -70 -419 -96 -717 -96 -251 0 -375 10 -598 50 -588 106
-1122 299 -1875 677 -158 79 -217 110 -445 231 -98 51 -446 243 -830 457 -146
81 -285 158 -310 172 -25 14 -72 40 -105 58 -33 19 -89 50 -125 70 -36 20 -80
43 -97 51 -18 8 -33 18 -33 23 0 11 0 11 155 46 66 14 150 33 187 41 76 17
222 44 403 74 66 11 161 27 210 35 402 69 988 86 1390 40 355 -41 723 -121
1090 -240 125 -40 176 -49 186 -34 24 37 -6 53 -206 109 -38 11 -117 34 -175
50 -100 28 -349 89 -510 124 -302 65 -754 96 -1138 78 -208 -10 -696 -60 -753
-77 -8 -3 -67 -14 -130 -25 -236 -40 -484 -90 -672 -135 -131 -32 -148 -31
-214 6 -189 108 -860 444 -1083 542 -19 9 -87 39 -150 67 -103 46 -335 140
-510 206 -36 14 -76 30 -90 36 -14 6 -50 19 -80 28 -30 10 -107 36 -170 58
-63 22 -162 54 -220 72 -58 17 -116 36 -130 41 -106 37 -598 153 -780 184 -52
9 -97 18 -100 20 -4 2 -119 19 -256 37 -247 32 -252 32 -674 33 -413 0 -430
-1 -611 -28 -358 -53 -657 -134 -903 -244 -501 -223 -787 -511 -863 -868 -21
-97 -23 -298 -4 -405 55 -312 278 -691 539 -915 206 -177 395 -276 683 -359
86 -25 249 -45 409 -52 244 -11 594 37 915 123 72 19 147 39 169 44 120 29
959 306 1001 331 6 3 28 11 50 18 50 15 150 51 282 102 56 21 133 50 170 63
349 121 543 187 766 260 144 48 287 95 317 105 30 10 109 35 175 55 66 20 131
41 145 46 14 5 63 20 110 33 47 13 141 40 210 59 278 81 367 105 597 163 l151
38 109 -61 c59 -33 135 -75 168 -93 33 -18 110 -61 170 -95 61 -34 139 -78
175 -97 36 -20 144 -80 240 -133 96 -54 204 -113 240 -133 36 -19 85 -46 110
-60 25 -13 74 -41 110 -60 36 -19 103 -56 150 -82 144 -80 274 -148 535 -279
223 -112 313 -156 490 -237 99 -46 383 -162 480 -197 215 -77 300 -105 500
-161 667 -189 1335 -204 1824 -41 482 161 902 490 1217 955 202 298 334 639
334 855 0 79 -27 184 -67 265 -45 92 -178 230 -298 309 -176 116 -541 270
-808 340 -131 34 -232 63 -252 72 -25 10 -469 119 -630 154 -66 14 -136 30
-155 35 -76 20 -701 144 -909 181 -63 11 -117 22 -121 24 -3 2 -62 13 -130 24
-69 12 -199 35 -290 51 -91 17 -214 40 -275 50 -60 11 -171 30 -245 44 -74 13
-218 38 -319 56 -102 17 -193 35 -202 39 -16 5 -15 10 13 51 129 190 182 440
182 855 0 456 -63 880 -227 1505 -22 84 -110 356 -131 403 -6 11 -4 17 5 17
12 0 562 -273 584 -290 21 -16 655 -329 755 -373 459 -200 664 -200 851 -1
159 170 265 503 291 916 38 597 -97 1262 -425 2093 -107 272 -292 634 -434
853 -159 245 -414 530 -583 654 -91 66 -257 178 -264 178 -3 0 -28 14 -56 31
-48 29 -287 142 -380 179 -25 10 -79 31 -120 48 -41 17 -185 72 -320 123 -582
218 -876 345 -1305 564 -232 118 -278 144 -393 215 l-54 33 49 30 c329 210
469 316 655 496 245 236 372 409 528 716 219 431 327 923 299 1364 -34 545
-315 1000 -816 1325 -176 114 -441 222 -658 270 -67 14 -305 38 -349 34 -12
-1 -41 -3 -66 -5z m370 -80 c121 -20 305 -81 440 -145 389 -186 688 -467 855
-803 117 -237 155 -399 162 -691 4 -170 2 -224 -16 -350 -66 -453 -235 -891
-477 -1231 -173 -243 -447 -501 -744 -702 -200 -135 -287 -184 -313 -177 -25
6 -297 184 -399 261 -110 84 -142 109 -203 160 -299 248 -551 543 -684 800
-104 200 -169 395 -218 646 -26 137 -27 158 -28 449 0 293 1 311 28 455 89
473 245 801 493 1036 281 265 659 365 1104 292z m58 -5070 c22 -58 52 -161 67
-228 71 -321 113 -516 140 -655 15 -72 27 -126 82 -350 114 -464 221 -748 338
-899 123 -160 353 -355 575 -488 98 -59 350 -187 460 -233 133 -57 121 -61
-88 -29 -396 60 -779 175 -1047 314 -254 132 -472 336 -578 540 -108 208 -147
476 -122 837 8 117 22 328 30 468 32 520 96 846 143 723z m2893 -3017 c80 -17
142 -47 187 -90 38 -35 76 -102 67 -116 -14 -23 -168 -7 -310 31 -234 63 -525
157 -525 170 0 5 91 10 203 12 111 1 227 3 257 5 30 1 85 -5 121 -12z m-2609
-37 c274 -100 691 -399 1023 -734 164 -165 301 -335 270 -335 -6 0 -516 254
-605 302 -103 55 -209 115 -295 168 -324 199 -605 473 -605 589 0 35 8 39 77
40 34 1 79 -9 135 -30z m-3066 -191 c-32 -122 -96 -276 -152 -364 -49 -76
-142 -158 -200 -175 -78 -22 -154 -16 -221 17 -67 34 -92 65 -100 121 -17 125
100 256 302 339 136 57 368 133 378 124 4 -3 1 -32 -7 -62z m466 -1665 c79
-87 139 -259 192 -553 39 -212 51 -365 51 -645 -1 -277 -9 -362 -50 -501 -43
-142 -115 -242 -207 -288 -114 -57 -221 -10 -282 124 -51 113 -69 226 -68 440
0 107 5 227 10 265 53 365 84 511 170 795 23 79 126 363 138 382 9 14 19 9 46
-19z m2668 -2053 c113 -11 250 -27 305 -35 55 -8 168 -24 250 -36 288 -40 540
-80 753 -120 128 -25 129 -28 29 -77 -454 -222 -1257 -377 -1770 -343 -257 17
-439 78 -556 187 -88 82 -120 163 -91 238 17 46 84 108 145 137 74 33 114 44
230 59 50 6 97 13 105 15 37 10 414 -6 600 -25z m-4365 -545 c138 -14 273 -30
300 -34 28 -5 93 -16 145 -25 249 -43 525 -107 825 -192 95 -27 542 -174 585
-193 14 -6 70 -26 125 -46 55 -20 120 -44 145 -55 25 -10 101 -42 170 -71 273
-112 473 -205 811 -374 343 -171 589 -302 589 -313 0 -4 -42 -18 -92 -31 -51
-13 -131 -34 -178 -47 -47 -12 -137 -37 -200 -54 -404 -110 -963 -287 -1460
-463 -85 -30 -193 -68 -240 -84 -229 -81 -841 -297 -885 -313 -177 -66 -453
-155 -770 -250 -269 -81 -597 -152 -781 -170 -132 -13 -429 -13 -534 0 -275
34 -509 126 -754 296 -175 122 -377 364 -493 592 -114 223 -149 378 -141 611
5 114 10 149 33 216 54 158 115 257 229 373 177 183 423 330 741 445 284 102
523 151 985 200 19 2 161 5 315 5 235 2 320 -2 530 -23z"/>
</g>
</svg>
